<?xml version="1.0" encoding="utf-8"?>
<!-- Generator: Adobe Illustrator 24.2.3, SVG Export Plug-In . SVG Version: 6.00 Build 0)  -->
<svg version="1.1" id="Layer_1" xmlns="http://www.w3.org/2000/svg" xmlns:xlink="http://www.w3.org/1999/xlink" x="0px" y="0px"
	 viewBox="0 0 250 250" style="enable-background:new 0 0 250 250;" xml:space="preserve">
<style type="text/css">
	.st0{fill:#FFE76A;}
</style>
<path class="st0" d="M246.88,237.02V125.03V13.04L22.26,12.98c-10.57,0-19.14,10.05-19.14,22.44c0,12.39,8.57,22.44,19.14,22.44
	c-10.57,0-19.14,10.04-19.14,22.44c0,12.39,8.57,22.44,19.14,22.44c-10.57,0-19.14,10.04-19.14,22.44
	c0,12.39,8.57,22.44,19.14,22.44c-10.57,0-19.14,9.97-19.14,22.27s8.57,22.27,19.14,22.27c-10.57,0-19.14,10.04-19.14,22.44
	s8.57,22.44,19.14,22.44h26.12H246.88z"/>
</svg>
