<svg width="828" height="761" viewBox="0 0 828 761" fill="none" xmlns="http://www.w3.org/2000/svg">
<path d="M828 761L828 380.594L828 0.188363L65.0234 -3.33508e-05C29.112 -3.98515e-05 -1.49149e-06 34.1213 -3.33134e-06 76.212C-5.17118e-06 118.303 29.112 152.424 65.0234 152.424C29.112 152.424 -8.15415e-06 186.545 -9.99399e-06 228.636C-1.18338e-05 270.727 29.112 304.849 65.0234 304.849C29.112 304.849 -1.48168e-05 338.97 -1.66567e-05 381.061C-1.84965e-05 423.151 29.112 457.272 65.0234 457.272C29.112 457.272 -2.14685e-05 491.143 -2.32949e-05 532.924C-2.51212e-05 574.705 29.112 608.576 65.0234 608.576C29.112 608.576 -2.80932e-05 642.697 -2.9933e-05 684.788C-3.17729e-05 726.879 29.112 761 65.0234 761L153.758 761L828 761Z" fill="#FFE76A"/>
</svg>
