<?xml version="1.0" encoding="utf-8"?>
<!-- Generator: Adobe Illustrator 24.2.3, SVG Export Plug-In . SVG Version: 6.00 Build 0)  -->
<svg version="1.1" id="Layer_1" xmlns="http://www.w3.org/2000/svg" xmlns:xlink="http://www.w3.org/1999/xlink" x="0px" y="0px"
	 viewBox="0 0 250 250" style="enable-background:new 0 0 250 250;" xml:space="preserve">
<style type="text/css">
	.st0{fill:#DFF978;}
</style>
<path class="st0" d="M236.04,98.78c0-52.24-49.7-94.59-111.01-94.59c-61.31,0-111.01,42.35-111.01,94.59l-0.05,128.06
	c0,10.48,9.96,18.98,22.24,18.98c12.28,0,22.24-8.5,22.24-18.98c0,10.48,9.96,18.98,22.24,18.98c12.28,0,22.24-8.5,22.24-18.98
	c0,10.48,9.96,18.98,22.24,18.98c12.28,0,22.24-8.5,22.24-18.98c0,10.48,9.88,18.98,22.08,18.98c12.19,0,22.08-8.5,22.08-18.98
	c0,10.48,9.96,18.98,22.24,18.98s22.24-8.5,22.24-18.98v-25.9V98.78z"/>
</svg>
