<?xml version="1.0" encoding="utf-8"?>
<!-- Generator: Adobe Illustrator 24.2.3, SVG Export Plug-In . SVG Version: 6.00 Build 0)  -->
<svg version="1.1" id="Layer_1" xmlns="http://www.w3.org/2000/svg" xmlns:xlink="http://www.w3.org/1999/xlink" x="0px" y="0px"
	 viewBox="0 0 250 250" style="enable-background:new 0 0 250 250;" xml:space="preserve">
<style type="text/css">
	.st0{fill:#E4F57C;}
</style>
<path class="st0" d="M122.6,12.51c0.8-2.25,3.99-2.25,4.8,0l16.75,47.02c0.56,1.57,2.46,2.19,3.84,1.25l41.19-28.19
	c1.98-1.35,4.56,0.52,3.88,2.82l-14.08,47.88c-0.47,1.6,0.7,3.22,2.37,3.26l49.89,1.41c2.39,0.07,3.38,3.1,1.48,4.56l-39.54,30.46
	c-1.32,1.02-1.32,3.01,0,4.03l39.54,30.46c1.9,1.46,0.91,4.49-1.48,4.56l-49.89,1.41c-1.67,0.05-2.84,1.66-2.37,3.26l14.08,47.88
	c0.68,2.3-1.9,4.17-3.88,2.82l-41.19-28.19c-1.38-0.94-3.27-0.33-3.84,1.25l-16.75,47.02c-0.8,2.25-3.99,2.25-4.8,0l-16.75-47.02
	c-0.56-1.57-2.46-2.19-3.84-1.25l-41.19,28.19c-1.98,1.35-4.56-0.52-3.88-2.82l14.08-47.88c0.47-1.6-0.7-3.22-2.37-3.26l-49.89-1.41
	c-2.39-0.07-3.38-3.1-1.48-4.56l39.54-30.46c1.32-1.02,1.32-3.01,0-4.03L17.28,92.52c-1.9-1.46-0.91-4.49,1.48-4.56l49.89-1.41
	c1.67-0.05,2.84-1.66,2.37-3.26L56.94,35.41c-0.68-2.3,1.9-4.17,3.88-2.82l41.19,28.19c1.38,0.94,3.27,0.33,3.84-1.25L122.6,12.51z"
	/>
</svg>
