<svg width="26" height="28" viewBox="0 0 26 28" fill="none" xmlns="http://www.w3.org/2000/svg">
<path d="M13.2867 0.207346C13.1906 -0.0691143 12.8094 -0.0691157 12.7133 0.207344L10.7098 5.97219C10.6428 6.16503 10.4159 6.24061 10.2512 6.125L5.3259 2.66869C5.0897 2.50294 4.78124 2.73275 4.86198 3.01432L6.5456 8.88574C6.60192 9.08214 6.46171 9.28002 6.26216 9.28578L0.296328 9.45821C0.0102291 9.46648 -0.107592 9.83832 0.119127 10.0175L4.84675 13.7528C5.00488 13.8777 5.00488 14.1223 4.84675 14.2472L0.119127 17.9825C-0.107592 18.1617 0.010231 18.5335 0.296329 18.5418L6.26216 18.7142C6.46171 18.72 6.60192 18.9179 6.5456 19.1143L4.86198 24.9857C4.78124 25.2672 5.0897 25.4971 5.3259 25.3313L10.2512 21.875C10.4159 21.7594 10.6428 21.835 10.7098 22.0278L12.7133 27.7927C12.8094 28.0691 13.1906 28.0691 13.2867 27.7927L15.2902 22.0278C15.3572 21.835 15.5841 21.7594 15.7488 21.875L20.6741 25.3313C20.9103 25.4971 21.2188 25.2672 21.138 24.9857L19.4544 19.1143C19.3981 18.9179 19.5383 18.72 19.7378 18.7142L25.7037 18.5418C25.9898 18.5335 26.1076 18.1617 25.8809 17.9825L21.1533 14.2472C20.9951 14.1223 20.9951 13.8777 21.1533 13.7528L25.8809 10.0175C26.1076 9.83832 25.9898 9.46648 25.7037 9.45821L19.7378 9.28578C19.5383 9.28002 19.3981 9.08214 19.4544 8.88574L21.138 3.01432C21.2188 2.73275 20.9103 2.50294 20.6741 2.66869L15.7488 6.125C15.5841 6.24061 15.3572 6.16503 15.2902 5.97219L13.2867 0.207346Z" fill="#10ADCD"/>
</svg>
