<svg width="30" height="30" viewBox="0 0 30 30" fill="none" xmlns="http://www.w3.org/2000/svg">
<path d="M14.7991 7.16918C18.9428 7.16918 22.363 10.5894 22.363 14.7331C22.363 18.9426 18.9428 22.297 14.7991 22.297C10.5896 22.297 7.2352 18.9426 7.2352 14.7331C7.2352 10.5894 10.5896 7.16918 14.7991 7.16918ZM14.7991 19.6661C17.4958 19.6661 19.6663 17.4956 19.6663 14.7331C19.6663 12.0364 17.4958 9.86589 14.7991 9.86589C12.0366 9.86589 9.86613 12.0364 9.86613 14.7331C9.86613 17.4956 12.1024 19.6661 14.7991 19.6661ZM24.402 6.90609C24.402 7.89269 23.6127 8.68197 22.6261 8.68197C21.6395 8.68197 20.8503 7.89269 20.8503 6.90609C20.8503 5.91949 21.6395 5.13021 22.6261 5.13021C23.6127 5.13021 24.402 5.91949 24.402 6.90609ZM29.4008 8.68197C29.5323 11.1156 29.5323 18.4164 29.4008 20.85C29.2692 23.2179 28.7431 25.2568 27.0329 27.0327C25.3228 28.7428 23.2181 29.269 20.8503 29.4005C18.4167 29.5321 11.1158 29.5321 8.68221 29.4005C6.31438 29.269 4.27541 28.7428 2.49953 27.0327C0.789424 25.2568 0.263238 23.2179 0.131691 20.85C0.00014472 18.4164 0.00014472 11.1156 0.131691 8.68197C0.263238 6.31413 0.789424 4.20939 2.49953 2.49928C4.27541 0.78918 6.31438 0.262994 8.68221 0.131447C11.1158 -9.91821e-05 18.4167 -9.91821e-05 20.8503 0.131447C23.2181 0.262994 25.3228 0.78918 27.0329 2.49928C28.7431 4.20939 29.2692 6.31413 29.4008 8.68197ZM26.2437 23.4152C27.0329 21.5078 26.8356 16.9036 26.8356 14.7331C26.8356 12.6284 27.0329 8.02424 26.2437 6.05104C25.7175 4.80135 24.7309 3.74898 23.4812 3.28856C21.508 2.49928 16.9039 2.6966 14.7991 2.6966C12.6286 2.6966 8.02448 2.49928 6.11706 3.28856C4.80159 3.81475 3.81499 4.80135 3.28881 6.05104C2.49953 8.02424 2.69685 12.6284 2.69685 14.7331C2.69685 16.9036 2.49953 21.5078 3.28881 23.4152C3.81499 24.7306 4.80159 25.7172 6.11706 26.2434C8.02448 27.0327 12.6286 26.8354 14.7991 26.8354C16.9039 26.8354 21.508 27.0327 23.4812 26.2434C24.7309 25.7172 25.7833 24.7306 26.2437 23.4152Z" fill="black"/>
</svg>
