<?xml version="1.0" encoding="utf-8"?>
<!-- Generator: Adobe Illustrator 24.2.3, SVG Export Plug-In . SVG Version: 6.00 Build 0)  -->
<svg version="1.1" id="Layer_1" xmlns="http://www.w3.org/2000/svg" xmlns:xlink="http://www.w3.org/1999/xlink" x="0px" y="0px"
	 viewBox="0 0 243.8 224" style="enable-background:new 0 0 243.8 224;" xml:space="preserve">
<style type="text/css">
	.st0{fill:#FFE76A;}
</style>
<path class="st0" d="M243.8,224V112V0L19.1,0C8.6,0,0,10,0,22.4s8.6,22.4,19.1,22.4C8.6,44.9,0,54.9,0,67.3
	c0,12.4,8.6,22.4,19.1,22.4C8.6,89.7,0,99.8,0,112.2c0,12.4,8.6,22.4,19.1,22.4c-10.6,0-19.1,10-19.1,22.3s8.6,22.3,19.1,22.3
	c-10.6,0-19.1,10-19.1,22.4S8.6,224,19.1,224h26.1L243.8,224L243.8,224z"/>
</svg>
