<svg width="30" height="30" viewBox="0 0 30 30" fill="none" xmlns="http://www.w3.org/2000/svg">
<path d="M6.57732 29.4006H0.460413V9.73443H6.57732V29.4006ZM3.48598 7.1035C1.57856 7.1035 0 5.45917 0 3.48597C0 1.57855 1.57856 -7.39098e-06 3.48598 -7.39098e-06C5.45918 -7.39098e-06 7.03774 1.57855 7.03774 3.48597C7.03774 5.45917 5.45918 7.1035 3.48598 7.1035ZM29.4006 29.4006H23.3495V19.8635C23.3495 17.5615 23.2837 14.6674 20.1266 14.6674C16.9695 14.6674 16.5091 17.101 16.5091 19.6662V29.4006H10.3922V9.73443H16.246V12.4311H16.3118C17.1668 10.9184 19.14 9.27402 22.0998 9.27402C28.2825 9.27402 29.4664 13.352 29.4664 18.6138V29.4006H29.4006Z" fill="black"/>
</svg>
