<?xml version="1.0" encoding="utf-8"?>
<!-- Generator: Adobe Illustrator 24.2.3, SVG Export Plug-In . SVG Version: 6.00 Build 0)  -->
<svg version="1.1" id="Layer_1" xmlns="http://www.w3.org/2000/svg" xmlns:xlink="http://www.w3.org/1999/xlink" x="0px" y="0px"
	 viewBox="0 0 222.1 241.6" style="enable-background:new 0 0 222.1 241.6;" xml:space="preserve">
<style type="text/css">
	.st0{fill:#DFF978;}
</style>
<path class="st0" d="M222.1,94.6c0-52.2-49.7-94.6-111-94.6S0.1,42.3,0.1,94.6L0,222.6c0,10.5,10,19,22.2,19s22.2-8.5,22.2-19
	c0,10.5,10,19,22.2,19s22.2-8.5,22.2-19c0,10.5,10,19,22.2,19s22.2-8.5,22.2-19c0,10.5,9.9,19,22.1,19c12.2,0,22.1-8.5,22.1-19
	c0,10.5,10,19,22.2,19s22.2-8.5,22.2-19v-25.9L222.1,94.6L222.1,94.6z"/>
</svg>
