<svg width="761" height="828" viewBox="0 0 761 828" fill="none" xmlns="http://www.w3.org/2000/svg">
<path d="M761 324.148C761 145.126 590.687 -1.63878e-05 380.594 0C170.502 1.63878e-05 0.18836 145.126 0.188377 324.148L0 762.977C-4.93103e-06 798.888 34.1213 828 76.2121 828C118.303 828 152.424 798.888 152.424 762.977C152.424 798.888 186.545 828 228.636 828C270.727 828 304.849 798.888 304.849 762.977C304.849 798.888 338.97 828 381.061 828C423.151 828 457.272 798.888 457.272 762.977C457.272 798.888 491.143 828 532.924 828C574.705 828 608.576 798.888 608.576 762.977C608.576 798.888 642.697 828 684.788 828C726.879 828 761 798.888 761 762.977V674.242L761 324.148Z" fill="#DFF978"/>
</svg>
