<svg width="514" height="540" viewBox="0 0 514 540" fill="none" xmlns="http://www.w3.org/2000/svg">
<path d="M251.348 4.85951C253.242 -0.454971 260.758 -0.454999 262.652 4.85948L302.145 115.679C303.466 119.386 307.937 120.839 311.185 118.616L408.273 52.1747C412.929 48.9885 419.01 53.4062 417.418 58.8189L384.23 171.687C383.12 175.462 385.884 179.266 389.818 179.377L507.417 182.692C513.057 182.851 515.379 189.999 510.91 193.442L417.718 265.247C414.601 267.649 414.601 272.351 417.718 274.753L510.91 346.558C515.379 350.001 513.057 357.149 507.417 357.308L389.818 360.623C385.884 360.734 383.12 364.538 384.23 368.313L417.418 481.181C419.01 486.594 412.929 491.012 408.273 487.825L311.185 421.384C307.937 419.161 303.466 420.614 302.145 424.321L262.652 535.141C260.758 540.455 253.242 540.455 251.348 535.141L211.855 424.321C210.534 420.614 206.063 419.161 202.815 421.384L105.727 487.825C101.071 491.012 94.9903 486.594 96.5819 481.181L129.77 368.313C130.88 364.538 128.116 360.734 124.182 360.623L6.58287 357.308C0.943246 357.149 -1.37926 350.001 3.08986 346.558L96.2816 274.753C99.3988 272.351 99.3988 267.649 96.2816 265.247L3.08985 193.442C-1.37927 189.999 0.943264 182.851 6.58289 182.692L124.182 179.377C128.116 179.266 130.88 175.462 129.77 171.687L96.5819 58.8189C94.9903 53.4062 101.071 48.9885 105.727 52.1748L202.815 118.616C206.063 120.839 210.534 119.386 211.855 115.679L251.348 4.85951Z" fill="#E4F57C"/>
</svg>
